<svg width="24" height="25" viewBox="0 0 24 25" fill="none" xmlns="http://www.w3.org/2000/svg">
<g clip-path="url(#clip0_5001_29954)">
<path d="M24.0001 12.2445C24.0001 5.57549 18.6271 0.169495 12.0001 0.169495C5.37007 0.170995 -0.00292969 5.5755 -0.00292969 12.246C-0.00292969 18.2715 4.38607 23.2665 10.1221 24.1725V15.735H7.07707V12.246H10.1251V9.58349C10.1251 6.55799 11.9176 4.88699 14.6581 4.88699C15.9721 4.88699 17.3446 5.12249 17.3446 5.12249V8.09249H15.8311C14.3416 8.09249 13.8766 9.02399 13.8766 9.97949V12.2445H17.2036L16.6726 15.7335H13.8751V24.171C19.6111 23.265 24.0001 18.27 24.0001 12.2445Z" fill="#333333"/>
</g>
<defs>
<clipPath id="clip0_5001_29954">
<rect width="24" height="24" fill="white" transform="translate(0 0.171021)"/>
</clipPath>
</defs>
</svg>
