<svg width="24" height="25" viewBox="0 0 24 25" fill="none" xmlns="http://www.w3.org/2000/svg">
<g clip-path="url(#clip0_5001_29951)">
<path d="M12 0.171021C8.7435 0.171021 8.334 0.186021 7.0545 0.243021C5.775 0.303021 4.9035 0.50402 4.14 0.801021C3.33914 1.10225 2.61374 1.57476 2.0145 2.18552C1.40411 2.78506 0.931661 3.51038 0.63 4.31102C0.333 5.07302 0.1305 5.94602 0.072 7.22102C0.015 8.50352 0 8.91152 0 12.1725C0 15.4305 0.015 15.8385 0.072 17.118C0.132 18.396 0.333 19.2675 0.63 20.031C0.9375 20.82 1.347 21.489 2.0145 22.1565C2.6805 22.824 3.3495 23.235 4.1385 23.541C4.9035 23.838 5.7735 24.0405 7.0515 24.099C8.3325 24.156 8.7405 24.171 12 24.171C15.2595 24.171 15.666 24.156 16.947 24.099C18.2235 24.039 19.098 23.838 19.8615 23.541C20.6618 23.2396 21.3867 22.7671 21.9855 22.1565C22.653 21.489 23.0625 20.82 23.37 20.031C23.6655 19.2675 23.868 18.396 23.928 17.118C23.985 15.8385 24 15.4305 24 12.171C24 8.91152 23.985 8.50352 23.928 7.22252C23.868 5.94602 23.6655 5.07302 23.37 4.31102C23.0684 3.51036 22.5959 2.78503 21.9855 2.18552C21.3864 1.57453 20.661 1.10199 19.86 0.801021C19.095 0.50402 18.222 0.301521 16.9455 0.243021C15.6645 0.186021 15.258 0.171021 11.997 0.171021H12.0015H12ZM10.9245 2.33402H12.0015C15.2055 2.33402 15.585 2.34452 16.8495 2.40302C18.0195 2.45552 18.6555 2.65202 19.0785 2.81552C19.638 3.03302 20.0385 3.29402 20.4585 3.71402C20.8785 4.13402 21.138 4.53302 21.3555 5.09402C21.5205 5.51552 21.7155 6.15152 21.768 7.32152C21.8265 8.58602 21.8385 8.96552 21.8385 12.168C21.8385 15.3705 21.8265 15.7515 21.768 17.016C21.7155 18.186 21.519 18.8205 21.3555 19.2435C21.1631 19.7646 20.856 20.2357 20.457 20.622C20.037 21.042 19.638 21.3015 19.077 21.519C18.657 21.684 18.021 21.879 16.8495 21.933C15.585 21.99 15.2055 22.0035 12.0015 22.0035C8.7975 22.0035 8.4165 21.99 7.152 21.933C5.982 21.879 5.3475 21.684 4.9245 21.519C4.40325 21.3269 3.93169 21.0204 3.5445 20.622C3.14513 20.2351 2.83758 19.7635 2.6445 19.242C2.481 18.8205 2.2845 18.1845 2.232 17.0145C2.175 15.75 2.163 15.3705 2.163 12.165C2.163 8.96102 2.175 8.58302 2.232 7.31852C2.286 6.14852 2.481 5.51252 2.646 5.08952C2.8635 4.53002 3.1245 4.12952 3.5445 3.70952C3.9645 3.28952 4.3635 3.03002 4.9245 2.81252C5.3475 2.64752 5.982 2.45252 7.152 2.39852C8.259 2.34752 8.688 2.33252 10.9245 2.33102V2.33402ZM18.4065 4.32602C18.2174 4.32602 18.0301 4.36327 17.8554 4.43563C17.6807 4.508 17.522 4.61407 17.3883 4.74779C17.2545 4.8815 17.1485 5.04025 17.0761 5.21496C17.0037 5.38967 16.9665 5.57692 16.9665 5.76602C16.9665 5.95512 17.0037 6.14238 17.0761 6.31708C17.1485 6.49179 17.2545 6.65054 17.3883 6.78425C17.522 6.91797 17.6807 7.02404 17.8554 7.09641C18.0301 7.16877 18.2174 7.20602 18.4065 7.20602C18.7884 7.20602 19.1547 7.05431 19.4247 6.78425C19.6948 6.5142 19.8465 6.14793 19.8465 5.76602C19.8465 5.38411 19.6948 5.01784 19.4247 4.74779C19.1547 4.47773 18.7884 4.32602 18.4065 4.32602ZM12.0015 6.00902C11.1841 5.99627 10.3723 6.14625 9.61347 6.45023C8.85459 6.75422 8.16377 7.20613 7.58123 7.77966C6.99868 8.35318 6.53605 9.03687 6.22026 9.79091C5.90448 10.545 5.74185 11.3543 5.74185 12.1718C5.74185 12.9893 5.90448 13.7986 6.22026 14.5526C6.53605 15.3067 6.99868 15.9904 7.58123 16.5639C8.16377 17.1374 8.85459 17.5893 9.61347 17.8933C10.3723 18.1973 11.1841 18.3473 12.0015 18.3345C13.6193 18.3093 15.1623 17.6489 16.2975 16.4959C17.4326 15.3429 18.0689 13.7898 18.0689 12.1718C18.0689 10.5538 17.4326 9.00064 16.2975 7.84764C15.1623 6.69465 13.6193 6.03426 12.0015 6.00902ZM12.0015 8.17052C13.0625 8.17052 14.08 8.592 14.8303 9.34224C15.5805 10.0925 16.002 11.11 16.002 12.171C16.002 13.232 15.5805 14.2496 14.8303 14.9998C14.08 15.75 13.0625 16.1715 12.0015 16.1715C10.9405 16.1715 9.92296 15.75 9.17272 14.9998C8.42248 14.2496 8.001 13.232 8.001 12.171C8.001 11.11 8.42248 10.0925 9.17272 9.34224C9.92296 8.592 10.9405 8.17052 12.0015 8.17052Z" fill="#333333"/>
</g>
<defs>
<clipPath id="clip0_5001_29951">
<rect width="24" height="24" fill="white" transform="translate(0 0.171021)"/>
</clipPath>
</defs>
</svg>
