<svg width="24" height="25" viewBox="0 0 24 25" fill="none" xmlns="http://www.w3.org/2000/svg">
<path d="M12.0765 3.16949H12.21C13.443 3.17399 19.6905 3.21899 21.375 3.67199C21.8842 3.81025 22.3483 4.07973 22.7207 4.45351C23.0932 4.82729 23.361 5.29227 23.4975 5.80199C23.649 6.37199 23.7555 7.1265 23.8275 7.90499L23.8425 8.061L23.8755 8.45099L23.8875 8.607C23.985 9.97799 23.997 11.262 23.9985 11.5425V11.655C23.997 11.946 23.9835 13.317 23.8755 14.745L23.8635 14.9025L23.85 15.0585C23.775 15.9165 23.664 16.7685 23.4975 17.3955C23.3615 17.9054 23.0938 18.3706 22.7212 18.7445C22.3487 19.1183 21.8844 19.3877 21.375 19.5255C19.635 19.9935 13.0215 20.0265 12.105 20.028H11.892C11.4285 20.028 9.5115 20.019 7.5015 19.95L7.2465 19.941L7.116 19.935L6.8595 19.9245L6.603 19.914C4.938 19.8405 3.3525 19.722 2.622 19.524C2.11273 19.3863 1.6486 19.1172 1.27609 18.7436C0.903575 18.37 0.63577 17.9051 0.4995 17.3955C0.333 16.77 0.222 15.9165 0.147 15.0585L0.135 14.901L0.123 14.745C0.0489714 13.7286 0.0079498 12.7101 0 11.691L0 11.5065C0.003 11.184 0.015 10.0695 0.096 8.83949L0.1065 8.685L0.111 8.607L0.123 8.45099L0.156 8.061L0.171 7.90499C0.243 7.1265 0.3495 6.37049 0.501 5.80199C0.63704 5.29207 0.904743 4.82686 1.27727 4.45302C1.6498 4.07918 2.11405 3.80983 2.6235 3.67199C3.354 3.47699 4.9395 3.35699 6.6045 3.28199L6.8595 3.27149L7.1175 3.26249L7.2465 3.25799L7.503 3.24749C8.93056 3.20156 10.3587 3.17605 11.787 3.17099H12.0765V3.16949ZM9.6 7.9845V15.2115L15.8355 11.5995L9.6 7.9845Z" fill="#333333"/>
</svg>
